<svg width="89" height="140" viewBox="0 0 89 140" fill="none" xmlns="http://www.w3.org/2000/svg">
<circle cx="70.6666" cy="44" r="18" fill="#75F1F1"/>
<path d="M71.3333 47.5832V52.5417C71.3333 61.7292 66.0833 65.6667 58.2083 65.6667H31.9583C24.0833 65.6667 18.8333 61.7292 18.8333 52.5417V36.7916C18.8333 27.6041 24.0833 23.6666 31.9583 23.6666H39.8333C39.4542 24.775 39.25 26 39.25 27.3125V38.6875C39.25 41.5167 40.1833 43.9083 41.8458 45.5708C43.5083 47.2333 45.9 48.1667 48.7292 48.1667V52.2209C48.7292 53.7084 50.4208 54.6123 51.675 53.7957L60.1042 48.1667H67.6875C69 48.1667 70.225 47.9623 71.3333 47.5832Z" stroke="#5313CA" stroke-width="4" stroke-miterlimit="10" stroke-linecap="round" stroke-linejoin="round"/>
<path d="M77.1667 27.3125V38.6876C77.1667 43.0334 74.95 46.2999 71.3333 47.5832C70.225 47.9624 69 48.1668 67.6875 48.1668H60.1042L51.675 53.7957C50.4208 54.6124 48.7292 53.7085 48.7292 52.221V48.1668C45.9 48.1668 43.5083 47.2334 41.8458 45.5709C40.1833 43.9084 39.25 41.5168 39.25 38.6876V27.3125C39.25 26 39.4542 24.775 39.8333 23.6667C41.1167 20.05 44.3833 17.8334 48.7292 17.8334H67.6875C73.375 17.8334 77.1667 21.625 77.1667 27.3125Z" stroke="#5313CA" stroke-width="4" stroke-miterlimit="10" stroke-linecap="round" stroke-linejoin="round"/>
<path d="M34.5833 76.1666H55.5833" stroke="#5313CA" stroke-width="4" stroke-miterlimit="10" stroke-linecap="round" stroke-linejoin="round"/>
<path d="M45.0833 65.6667V76.1667" stroke="#5313CA" stroke-width="4" stroke-miterlimit="10" stroke-linecap="round" stroke-linejoin="round"/>
<path d="M66.9452 33.1458H66.9715" stroke="#5313CA" stroke-width="4" stroke-linecap="round" stroke-linejoin="round"/>
<path d="M58.7791 33.1458H58.8054" stroke="#5313CA" stroke-width="4" stroke-linecap="round" stroke-linejoin="round"/>
<path d="M50.6116 33.1458H50.6378" stroke="#5313CA" stroke-width="4" stroke-linecap="round" stroke-linejoin="round"/>
</svg>
