<svg width="88" height="140" viewBox="0 0 88 140" fill="none" xmlns="http://www.w3.org/2000/svg">
<circle cx="70" cy="38" r="18" fill="#75F1F1"/>
<path d="M20.75 38.2499C23.9717 38.2499 26.5834 35.6382 26.5834 32.4166C26.5834 29.1949 23.9717 26.5833 20.75 26.5833C17.5284 26.5833 14.9167 29.1949 14.9167 32.4166C14.9167 35.6382 17.5284 38.2499 20.75 38.2499Z" stroke="#5313CA" stroke-width="4" stroke-miterlimit="10" stroke-linecap="round" stroke-linejoin="round"/>
<path d="M73.25 38.2499C76.4717 38.2499 79.0834 35.6382 79.0834 32.4166C79.0834 29.1949 76.4717 26.5833 73.25 26.5833C70.0284 26.5833 67.4167 29.1949 67.4167 32.4166C67.4167 35.6382 70.0284 38.2499 73.25 38.2499Z" stroke="#5313CA" stroke-width="4" stroke-miterlimit="10" stroke-linecap="round" stroke-linejoin="round"/>
<path d="M67.4167 32.4166H55.75" stroke="#5313CA" stroke-width="4" stroke-miterlimit="10" stroke-linecap="round" stroke-linejoin="round"/>
<path d="M38.25 32.4166H26.5834" stroke="#5313CA" stroke-width="4" stroke-miterlimit="10" stroke-linecap="round" stroke-linejoin="round"/>
<path d="M33.875 60.125V65.9583C33.875 67.7375 32.7959 69.2833 31.2792 69.925C30.725 70.1875 30.1417 70.3333 29.5 70.3333H23.6667C21.2459 70.3333 19.2917 68.3792 19.2917 65.9583V60.125C19.2917 57.7042 21.2459 55.75 23.6667 55.75H29.5C31.9209 55.75 33.875 57.7042 33.875 60.125Z" stroke="#5313CA" stroke-width="4" stroke-miterlimit="10" stroke-linecap="round" stroke-linejoin="round"/>
<path d="M74.7083 60.125V65.9583C74.7083 68.3792 72.7542 70.3333 70.3333 70.3333H64.5C63.8583 70.3333 63.275 70.1875 62.7208 69.925C61.2042 69.2833 60.125 67.7375 60.125 65.9583V60.125C60.125 57.7042 62.0792 55.75 64.5 55.75H70.3333C72.7542 55.75 74.7083 57.7042 74.7083 60.125Z" stroke="#5313CA" stroke-width="4" stroke-miterlimit="10" stroke-linecap="round" stroke-linejoin="round"/>
<path d="M55.75 28.0416V36.7916C55.75 39.1833 53.7667 41.1666 51.375 41.1666H42.625C40.2333 41.1666 38.25 39.1833 38.25 36.7916V28.0416C38.25 25.65 40.2333 23.6666 42.625 23.6666H51.375C53.7667 23.6666 55.75 25.65 55.75 28.0416Z" stroke="#5313CA" stroke-width="4" stroke-miterlimit="10" stroke-linecap="round" stroke-linejoin="round"/>
<path d="M55.75 34.5458C62.6625 38.0458 67.4167 45.5708 67.4167 54.2917C67.4167 54.7875 67.3875 55.2542 67.3292 55.75" stroke="#5313CA" stroke-width="4" stroke-miterlimit="10" stroke-linecap="round" stroke-linejoin="round"/>
<path d="M26.6709 55.75C26.6125 55.2542 26.5834 54.7875 26.5834 54.2917C26.5834 45.5708 31.3375 38.0458 38.25 34.5458" stroke="#5313CA" stroke-width="4" stroke-miterlimit="10" stroke-linecap="round" stroke-linejoin="round"/>
</svg>
