<svg width="89" height="140" viewBox="0 0 89 140" fill="none" xmlns="http://www.w3.org/2000/svg">
<circle cx="70.3334" cy="38" r="18" fill="#75F1F1"/>
<path d="M46.2417 63.7708H63.5083C63.2458 64.0041 62.9833 64.2083 62.7208 64.4416L50.2666 73.7749C46.1541 76.8374 39.4458 76.8374 35.3042 73.7749L22.8208 64.4416C20.0792 62.4 17.8333 57.8791 17.8333 54.4666V32.8541C17.8333 29.2957 20.5458 25.3582 23.8708 24.1041L38.3958 18.6499C40.7875 17.7458 44.7542 17.7458 47.1458 18.6499L61.6417 24.1041C64.4125 25.1541 66.775 28.0708 67.5041 31.0458H46.2125C45.5708 31.0458 44.9875 31.075 44.4333 31.075C39.0375 31.3958 37.6375 33.3499 37.6375 39.5041V55.3416C37.6666 62.0499 39.3875 63.7708 46.2417 63.7708Z" stroke="#5313CA" stroke-width="4" stroke-linecap="round" stroke-linejoin="round"/>
<path d="M37.6666 44.725H76.1666" stroke="#5313CA" stroke-width="4" stroke-miterlimit="10" stroke-linecap="round" stroke-linejoin="round"/>
<path d="M76.1666 39.4751V55.6625C76.1083 62.1375 74.3291 63.7417 67.5916 63.7417H46.2416C39.3875 63.7417 37.6666 62.0208 37.6666 55.2833V39.4459C37.6666 33.3209 39.0666 31.3667 44.4625 31.0167C45.0166 31.0167 45.6 30.9875 46.2416 30.9875H67.5916C74.4458 31.0167 76.1666 32.7084 76.1666 39.4751Z" stroke="#5313CA" stroke-width="4" stroke-linecap="round" stroke-linejoin="round"/>
<path d="M45.0167 56.5083H48.8958" stroke="#5313CA" stroke-width="4" stroke-miterlimit="10" stroke-linecap="round" stroke-linejoin="round"/>
<path d="M55.0208 56.5083H64.5583" stroke="#5313CA" stroke-width="4" stroke-miterlimit="10" stroke-linecap="round" stroke-linejoin="round"/>
</svg>
