<svg width="70" height="70" viewBox="0 0 70 70" fill="none" xmlns="http://www.w3.org/2000/svg">
<path d="M64.1667 35C64.1667 18.9 51.1 5.83337 35 5.83337C18.9 5.83337 5.83334 18.9 5.83334 35C5.83334 51.1 18.9 64.1667 35 64.1667" stroke="#5313CA" stroke-width="4" stroke-linecap="round" stroke-linejoin="round"/>
<path d="M23.3333 8.75H26.25C20.5625 25.7833 20.5625 44.2167 26.25 61.25H23.3333" stroke="#5313CA" stroke-width="4" stroke-linecap="round" stroke-linejoin="round"/>
<path d="M43.75 8.75C46.5792 17.2667 48.0084 26.1333 48.0084 35" stroke="#5313CA" stroke-width="4" stroke-linecap="round" stroke-linejoin="round"/>
<path d="M8.75 46.6667V43.75C17.2667 46.5792 26.1333 48.0084 35 48.0084" stroke="#5313CA" stroke-width="4" stroke-linecap="round" stroke-linejoin="round"/>
<path d="M8.75 26.25C25.7833 20.5625 44.2167 20.5625 61.25 26.25" stroke="#5313CA" stroke-width="4" stroke-linecap="round" stroke-linejoin="round"/>
<path d="M53.0833 62.4167C58.238 62.4167 62.4166 58.238 62.4166 53.0834C62.4166 47.9287 58.238 43.75 53.0833 43.75C47.9287 43.75 43.75 47.9287 43.75 53.0834C43.75 58.238 47.9287 62.4167 53.0833 62.4167Z" stroke="#5313CA" stroke-width="4" stroke-linecap="round" stroke-linejoin="round"/>
<path d="M64.1667 64.1667L61.25 61.25" stroke="#5313CA" stroke-width="4" stroke-linecap="round" stroke-linejoin="round"/>
</svg>
