<svg width="198" height="34" viewBox="0 0 198 34" fill="none" xmlns="http://www.w3.org/2000/svg">
<path d="M89.012 26H85.12V7.24H89.32V15.696H89.544C90.02 13.344 91.728 11.692 95.06 11.692C99.26 11.692 101.612 14.52 101.612 19C101.612 23.424 99.232 26.28 94.864 26.28C91.616 26.28 89.768 24.88 89.264 22.108H89.012V26ZM89.32 19.084C89.32 21.52 90.748 22.444 93.408 22.444C96.124 22.444 97.356 21.548 97.356 19C97.356 16.424 96.124 15.528 93.436 15.528C90.72 15.528 89.32 16.424 89.32 18.86V19.084ZM110.806 26.28C106.13 26.28 102.938 23.984 102.938 19C102.938 14.52 106.102 11.692 110.722 11.692C115.314 11.692 118.366 14.1 118.366 18.496C118.366 19 118.31 19.364 118.254 19.84H106.83C106.942 21.996 107.95 22.92 110.666 22.92C113.158 22.92 114.026 22.276 114.026 21.072V20.792H118.226V21.1C118.226 24.152 115.258 26.28 110.806 26.28ZM110.638 14.968C108.146 14.968 107.082 15.808 106.886 17.628H114.334C114.222 15.78 113.102 14.968 110.638 14.968ZM124.347 26H120.147V11.972H124.039V16.284H124.291C124.655 13.932 126.335 11.692 130.003 11.692C133.839 11.692 135.659 14.156 135.659 17.264V26H131.459V18.664C131.459 16.424 130.535 15.472 127.959 15.472C125.299 15.472 124.347 16.536 124.347 18.916V26ZM142.096 26.28C139.072 26.28 137.252 24.88 137.252 22.528C137.252 20.456 138.792 19.168 141.788 18.86L147.808 18.244V17.712C147.808 15.892 146.996 15.388 144.756 15.388C142.628 15.388 141.76 15.948 141.76 17.544V17.656H137.532V17.572C137.532 14.1 140.444 11.692 145.064 11.692C149.74 11.692 151.952 14.1 151.952 17.768V26H148.032V22.78H147.808C147.164 24.964 145.204 26.28 142.096 26.28ZM141.48 22.248C141.48 23.004 142.068 23.312 143.3 23.312C146.156 23.312 147.696 22.64 147.808 20.652L142.936 21.212C141.928 21.296 141.48 21.576 141.48 22.248ZM158.281 26H154.081V11.972H157.973V15.696H158.225C158.617 13.428 160.101 11.692 162.929 11.692C166.065 11.692 167.353 13.848 167.353 16.592V18.916H163.153V17.46C163.153 15.92 162.537 15.248 160.829 15.248C158.953 15.248 158.281 16.116 158.281 17.88V26ZM173.074 26H168.874V11.972H172.766V15.696H173.018C173.41 13.428 174.894 11.692 177.722 11.692C180.858 11.692 182.146 13.848 182.146 16.592V18.916H177.946V17.46C177.946 15.92 177.33 15.248 175.622 15.248C173.746 15.248 173.074 16.116 173.074 17.88V26ZM187.867 26H183.667V11.972H187.559V15.696H187.811C188.203 13.428 189.687 11.692 192.515 11.692C195.651 11.692 196.939 13.848 196.939 16.592V18.916H192.739V17.46C192.739 15.92 192.123 15.248 190.415 15.248C188.539 15.248 187.867 16.116 187.867 17.88V26Z" fill="#050729"/>
<path d="M54.6281 2.46838C55.1687 1.55804 56.149 1 57.2077 1H72.2298C74.5555 1 75.9967 3.53184 74.8094 5.53162L59.3719 31.5316C58.8313 32.442 57.851 33 56.7923 33H41.7702C39.4445 33 38.0033 30.4682 39.1906 28.4684L54.6281 2.46838Z" fill="#955CFF"/>
<path d="M34.6281 2.46838C35.1687 1.55804 36.149 1 37.2077 1H46.2298C48.5555 1 49.9967 3.53184 48.8094 5.53162L33.3719 31.5316C32.8313 32.442 31.851 33 30.7923 33H21.7702C19.4445 33 18.0033 30.4682 19.1906 28.4684L34.6281 2.46838Z" fill="#FF9736"/>
<path d="M18.6281 2.46838C19.1687 1.55804 20.149 1 21.2077 1H26.2298C28.5555 1 29.9967 3.53184 28.8094 5.53162L13.3719 31.5316C12.8313 32.442 11.851 33 10.7923 33H5.77021C3.4445 33 2.00328 30.4682 3.19065 28.4684L18.6281 2.46838Z" fill="#75F1F1"/>
</svg>
