<svg width="141" height="34" viewBox="0 0 141 34" fill="none" xmlns="http://www.w3.org/2000/svg">
<g clip-path="url(#clip0_35_241)">
<path d="M43.0059 23.334H52.9174V20.3486H46.5287V9.10376H43.0059V23.334Z" fill="#050729"/>
<path d="M58.7895 21.3437C57.3764 21.3437 56.64 20.1097 56.64 18.2588C56.64 16.4079 57.3764 15.154 58.7895 15.154C60.2026 15.154 60.9589 16.4079 60.9589 18.2588C60.9589 20.1097 60.2026 21.3437 58.7895 21.3437ZM58.8094 23.6524C62.0933 23.6524 64.2428 21.3238 64.2428 18.2588C64.2428 15.1938 62.0933 12.8652 58.8094 12.8652C55.5454 12.8652 53.3561 15.1938 53.3561 18.2588C53.3561 21.3238 55.5454 23.6524 58.8094 23.6524Z" fill="#050729"/>
<path d="M69.927 26.8568C71.4396 26.8568 72.773 26.5184 73.6686 25.7223C74.4846 24.9859 75.022 23.8714 75.022 22.3389V13.144H71.9172V14.2386H71.8774C71.2803 13.3828 70.3648 12.8455 69.0115 12.8455C66.4839 12.8455 64.7324 14.9551 64.7324 17.9405C64.7324 21.0652 66.862 22.7768 69.1508 22.7768C70.3847 22.7768 71.1609 22.2792 71.758 21.6025H71.8376V22.6176C71.8376 23.8515 71.2604 24.568 69.8872 24.568C68.8124 24.568 68.2751 24.1102 68.0959 23.5729H64.9514C65.2698 25.7024 67.1207 26.8568 69.927 26.8568ZM69.9071 20.3686C68.693 20.3686 67.8969 19.3735 67.8969 17.841C67.8969 16.2886 68.693 15.2935 69.9071 15.2935C71.2604 15.2935 71.9769 16.4478 71.9769 17.8211C71.9769 19.254 71.3201 20.3686 69.9071 20.3686Z" fill="#050729"/>
<path d="M81.406 21.3437C79.9929 21.3437 79.2565 20.1097 79.2565 18.2588C79.2565 16.4079 79.9929 15.154 81.406 15.154C82.819 15.154 83.5753 16.4079 83.5753 18.2588C83.5753 20.1097 82.819 21.3437 81.406 21.3437ZM81.4259 23.6524C84.7098 23.6524 86.8592 21.3238 86.8592 18.2588C86.8592 15.1938 84.7098 12.8652 81.4259 12.8652C78.1619 12.8652 75.9726 15.1938 75.9726 18.2588C75.9726 21.3238 78.1619 23.6524 81.4259 23.6524Z" fill="#050729"/>
<path d="M87.8062 23.334H91.0503V13.144H87.8062V23.334ZM87.8062 11.7309H91.0503V9.10376H87.8062V11.7309Z" fill="#050729"/>
<path d="M92.4584 26.6976H95.7025V22.2792H95.7423C96.3792 23.135 97.3146 23.6525 98.6282 23.6525C101.295 23.6525 103.066 21.5428 103.066 18.239C103.066 15.174 101.415 12.8455 98.7078 12.8455C97.3146 12.8455 96.3195 13.4624 95.6229 14.3779H95.5632V13.144H92.4584V26.6976ZM97.7923 21.1448C96.3991 21.1448 95.603 20.0103 95.603 18.3584C95.603 16.7065 96.3195 15.4527 97.7326 15.4527C99.1257 15.4527 99.7825 16.607 99.7825 18.3584C99.7825 20.0899 99.0262 21.1448 97.7923 21.1448Z" fill="#050729"/>
<path d="M108.348 23.6525C111.015 23.6525 112.985 22.4981 112.985 20.2691C112.985 17.6618 110.876 17.2041 109.084 16.9056C107.791 16.6667 106.636 16.5672 106.636 15.8507C106.636 15.2138 107.253 14.9153 108.05 14.9153C108.945 14.9153 109.562 15.1939 109.682 16.1095H112.667C112.508 14.0993 110.955 12.8455 108.069 12.8455C105.661 12.8455 103.671 13.96 103.671 16.1095C103.671 18.4978 105.562 18.9754 107.333 19.2739C108.686 19.5128 109.92 19.6123 109.92 20.5278C109.92 21.1846 109.303 21.5428 108.328 21.5428C107.253 21.5428 106.577 21.0453 106.457 20.0302H103.392C103.492 22.2792 105.363 23.6525 108.348 23.6525Z" fill="#050729"/>
<path d="M117.392 23.6324C118.805 23.6324 119.701 23.0751 120.437 22.08H120.497V23.3338H123.602V13.1438H120.358V18.8359C120.358 20.0499 119.681 20.8858 118.566 20.8858C117.531 20.8858 117.034 20.2689 117.034 19.1543V13.1438H113.81V19.831C113.81 22.0999 115.044 23.6324 117.392 23.6324Z" fill="#050729"/>
<path d="M125.012 23.334H128.256V17.622C128.256 16.408 128.853 15.5522 129.868 15.5522C130.844 15.5522 131.301 16.1891 131.301 17.2837V23.334H134.545V17.622C134.545 16.408 135.123 15.5522 136.158 15.5522C137.133 15.5522 137.591 16.1891 137.591 17.2837V23.334H140.835V16.7065C140.835 14.4178 139.68 12.8455 137.372 12.8455C136.058 12.8455 134.963 13.4027 134.167 14.6367H134.128C133.61 13.542 132.595 12.8455 131.262 12.8455C129.789 12.8455 128.814 13.542 128.177 14.5969H128.117V13.144H125.012V23.334Z" fill="#050729"/>
<path fill-rule="evenodd" clip-rule="evenodd" d="M17.1527 33.2852C26.3125 33.2852 33.738 25.8597 33.738 16.6998C33.738 7.54003 26.3125 0.114502 17.1527 0.114502C7.9928 0.114502 0.567291 7.54003 0.567291 16.6998C0.567291 25.8597 7.9928 33.2852 17.1527 33.2852ZM22.3267 7.84066C22.5786 6.94606 21.7104 6.41705 20.9176 6.98192L9.84939 14.8668C8.98952 15.4794 9.12477 16.6998 10.0526 16.6998H12.9671V16.6773H18.6474L14.019 18.3104L11.9786 25.5591C11.7268 26.4537 12.5948 26.9827 13.3878 26.4178L24.456 18.5329C25.3158 17.9204 25.1805 16.6998 24.2528 16.6998H19.833L22.3267 7.84066Z" fill="#050729"/>
</g>
<defs>
<clipPath id="clip0_35_241">
<rect width="140.976" height="34" fill="white"/>
</clipPath>
</defs>
</svg>
