<svg width="155" height="34" viewBox="0 0 155 34" fill="none" xmlns="http://www.w3.org/2000/svg">
<path d="M45.3899 22.6914C45.3899 23.4336 45.2375 24.0039 44.9328 24.4023C44.636 24.8008 44.1399 25 43.4446 25C42.7883 25 42.3235 24.8008 42.05 24.4023C41.7844 24.0039 41.6516 23.4336 41.6516 22.6914V10.3047C41.6516 9.5625 41.7844 8.99219 42.05 8.59375C42.3235 8.19531 42.7883 7.99609 43.4446 7.99609C44.1399 7.99609 44.636 8.19531 44.9328 8.59375C45.2375 8.99219 45.3899 9.5625 45.3899 10.3047V22.6914Z" fill="#050729"/>
<path d="M46.5247 19.0938C46.5247 18.2656 46.6575 17.4844 46.9232 16.75C47.1966 16.0078 47.6028 15.3594 48.1419 14.8047C48.6888 14.25 49.3685 13.8086 50.181 13.4805C51.0013 13.1523 51.9622 12.9883 53.0638 12.9883C54.1185 12.9883 55.0521 13.1406 55.8646 13.4453C56.6771 13.75 57.3607 14.1758 57.9153 14.7227C58.47 15.2617 58.8919 15.9062 59.181 16.6562C59.47 17.3984 59.6146 18.2109 59.6146 19.0938C59.6146 19.9141 59.4778 20.6914 59.2044 21.4258C58.931 22.1523 58.5208 22.793 57.9739 23.3477C57.4271 23.8945 56.7435 24.332 55.9232 24.6602C55.1028 24.9805 54.1497 25.1406 53.0638 25.1406C51.9935 25.1406 51.0482 24.9883 50.2278 24.6836C49.4153 24.3711 48.7318 23.9453 48.1771 23.4062C47.6302 22.8594 47.2161 22.2188 46.9349 21.4844C46.6614 20.7422 46.5247 19.9453 46.5247 19.0938ZM50.4271 19.0938C50.4271 19.6094 50.4739 20.1016 50.5677 20.5703C50.6614 21.0312 50.8099 21.4375 51.013 21.7891C51.2239 22.1406 51.4974 22.4219 51.8333 22.6328C52.1693 22.8359 52.5794 22.9375 53.0638 22.9375C53.5091 22.9375 53.8958 22.8438 54.2239 22.6562C54.5599 22.4688 54.8333 22.207 55.0443 21.8711C55.263 21.5352 55.4271 21.1328 55.5364 20.6641C55.6458 20.1875 55.7005 19.6641 55.7005 19.0938C55.7005 18.5781 55.6497 18.0898 55.5482 17.6289C55.4544 17.1602 55.3021 16.75 55.0911 16.3984C54.8802 16.0391 54.6068 15.7578 54.2708 15.5547C53.9427 15.3438 53.5403 15.2383 53.0638 15.2383C52.5872 15.2383 52.181 15.3398 51.845 15.543C51.5091 15.7461 51.2357 16.0234 51.0247 16.375C50.8138 16.7266 50.6614 17.1367 50.5677 17.6055C50.4739 18.0742 50.4271 18.5703 50.4271 19.0938Z" fill="#050729"/>
<path d="M69.2338 22.7383C69.0228 23.1289 68.765 23.4609 68.4603 23.7344C68.1635 24.0078 67.8314 24.2344 67.4643 24.4141C67.1049 24.5859 66.7182 24.7148 66.3041 24.8008C65.8978 24.8789 65.4799 24.918 65.0502 24.918C64.3314 24.918 63.6752 24.7891 63.0814 24.5312C62.4877 24.2734 61.976 23.9023 61.5463 23.418C61.1244 22.9258 60.7963 22.3242 60.5619 21.6133C60.3275 20.9023 60.2103 20.0898 60.2103 19.1758C60.2103 18.3164 60.3197 17.5117 60.5385 16.7617C60.7572 16.0117 61.0736 15.3594 61.4877 14.8047C61.9096 14.25 62.4252 13.8125 63.0346 13.4922C63.6439 13.1719 64.3393 13.0117 65.1205 13.0117C66.0111 13.0117 66.8002 13.1836 67.4877 13.5273C68.183 13.8711 68.7807 14.4336 69.2807 15.2148V14.9102C69.2807 14.3477 69.433 13.9258 69.7377 13.6445C70.0502 13.3555 70.4799 13.2109 71.0268 13.2109C71.3549 13.2109 71.6322 13.2656 71.8588 13.375C72.0853 13.4766 72.265 13.6328 72.3978 13.8438C72.5307 14.0469 72.6244 14.3008 72.6791 14.6055C72.7416 14.9023 72.7728 15.2422 72.7728 15.625V23.4766C72.7728 24.4297 72.6518 25.2812 72.4096 26.0312C72.1752 26.7812 71.808 27.4141 71.308 27.9297C70.808 28.4453 70.1674 28.8359 69.3861 29.1016C68.6049 29.375 67.6752 29.5117 66.5971 29.5117C65.8393 29.5117 65.1674 29.4766 64.5814 29.4062C64.0033 29.3438 63.5033 29.2461 63.0814 29.1133C62.6596 28.9648 62.3393 28.8008 62.1205 28.6211C61.9096 28.4414 61.8041 28.207 61.8041 27.918C61.8041 27.7539 61.8275 27.5977 61.8744 27.4492C61.9213 27.3008 61.9916 27.168 62.0853 27.0508C62.1869 26.9414 62.3158 26.8516 62.4721 26.7812C62.6361 26.7188 62.8353 26.6875 63.0697 26.6875C63.3197 26.6875 63.5697 26.7031 63.8197 26.7344C64.0775 26.7656 64.3432 26.7969 64.6166 26.8281C64.8978 26.8672 65.1908 26.9023 65.4955 26.9336C65.808 26.9648 66.1439 26.9805 66.5033 26.9805C66.933 26.9805 67.3158 26.9375 67.6518 26.8516C67.9877 26.7656 68.2728 26.6133 68.5072 26.3945C68.7416 26.1758 68.9213 25.8828 69.0463 25.5156C69.1713 25.1562 69.2338 24.6953 69.2338 24.1328V22.7383ZM69.2338 19.0938C69.2338 18.5234 69.1908 18.0039 69.1049 17.5352C69.0268 17.0664 68.89 16.668 68.6947 16.3398C68.4994 16.0039 68.2377 15.7461 67.9096 15.5664C67.5814 15.3789 67.1713 15.2852 66.6791 15.2852C66.1947 15.2852 65.7924 15.3828 65.4721 15.5781C65.1596 15.7734 64.9096 16.043 64.7221 16.3867C64.5346 16.7305 64.4018 17.1328 64.3236 17.5938C64.2533 18.0547 64.2182 18.5469 64.2182 19.0703C64.2182 20.2656 64.4291 21.1641 64.851 21.7656C65.2728 22.3672 65.8861 22.668 66.6908 22.668C67.0658 22.6602 67.4057 22.5898 67.7103 22.457C68.0228 22.3164 68.2924 22.1016 68.5189 21.8125C68.7455 21.5234 68.9213 21.1562 69.0463 20.7109C69.1713 20.2656 69.2338 19.7266 69.2338 19.0938Z" fill="#050729"/>
<path d="M73.8491 19.0938C73.8491 18.2656 73.9819 17.4844 74.2475 16.75C74.521 16.0078 74.9272 15.3594 75.4663 14.8047C76.0132 14.25 76.6928 13.8086 77.5053 13.4805C78.3257 13.1523 79.2866 12.9883 80.3882 12.9883C81.4428 12.9883 82.3764 13.1406 83.1889 13.4453C84.0014 13.75 84.685 14.1758 85.2397 14.7227C85.7944 15.2617 86.2163 15.9062 86.5053 16.6562C86.7944 17.3984 86.9389 18.2109 86.9389 19.0938C86.9389 19.9141 86.8022 20.6914 86.5288 21.4258C86.2553 22.1523 85.8452 22.793 85.2983 23.3477C84.7514 23.8945 84.0678 24.332 83.2475 24.6602C82.4272 24.9805 81.4741 25.1406 80.3882 25.1406C79.3178 25.1406 78.3725 24.9883 77.5522 24.6836C76.7397 24.3711 76.0561 23.9453 75.5014 23.4062C74.9546 22.8594 74.5405 22.2188 74.2592 21.4844C73.9858 20.7422 73.8491 19.9453 73.8491 19.0938ZM77.7514 19.0938C77.7514 19.6094 77.7983 20.1016 77.8921 20.5703C77.9858 21.0312 78.1342 21.4375 78.3374 21.7891C78.5483 22.1406 78.8217 22.4219 79.1577 22.6328C79.4936 22.8359 79.9038 22.9375 80.3882 22.9375C80.8335 22.9375 81.2202 22.8438 81.5483 22.6562C81.8842 22.4688 82.1577 22.207 82.3686 21.8711C82.5874 21.5352 82.7514 21.1328 82.8608 20.6641C82.9702 20.1875 83.0249 19.6641 83.0249 19.0938C83.0249 18.5781 82.9741 18.0898 82.8725 17.6289C82.7788 17.1602 82.6264 16.75 82.4155 16.3984C82.2046 16.0391 81.9311 15.7578 81.5952 15.5547C81.2671 15.3438 80.8647 15.2383 80.3882 15.2383C79.9116 15.2383 79.5053 15.3398 79.1694 15.543C78.8335 15.7461 78.56 16.0234 78.3491 16.375C78.1382 16.7266 77.9858 17.1367 77.8921 17.6055C77.7983 18.0742 77.7514 18.5703 77.7514 19.0938Z" fill="#050729"/>
<path d="M91.9644 9.03906C91.9644 9.29688 91.9058 9.52734 91.7886 9.73047C91.6714 9.92578 91.5191 10.0898 91.3316 10.2227C91.1441 10.3555 90.9253 10.457 90.6753 10.5273C90.4332 10.5898 90.1832 10.6211 89.9253 10.6211C89.6519 10.6211 89.3902 10.5859 89.1402 10.5156C88.898 10.4453 88.6832 10.3438 88.4957 10.2109C88.3082 10.0703 88.1597 9.90234 88.0503 9.70703C87.941 9.51172 87.8863 9.28906 87.8863 9.03906C87.8863 8.8125 87.9371 8.60547 88.0386 8.41797C88.148 8.22266 88.2925 8.05469 88.4722 7.91406C88.6519 7.77344 88.8668 7.66406 89.1168 7.58594C89.3668 7.50781 89.6402 7.46875 89.9371 7.46875C90.1949 7.46875 90.4449 7.50391 90.6871 7.57422C90.9371 7.64453 91.1558 7.74609 91.3433 7.87891C91.5308 8.01172 91.6793 8.17578 91.7886 8.37109C91.9058 8.56641 91.9644 8.78906 91.9644 9.03906ZM91.7886 22.6914C91.7886 23.4336 91.6363 24.0039 91.3316 24.4023C91.0347 24.8008 90.5386 25 89.8433 25C89.1871 25 88.7222 24.8008 88.4488 24.4023C88.1832 24.0039 88.0503 23.4336 88.0503 22.6914V15.5195C88.0503 14.7773 88.1832 14.207 88.4488 13.8086C88.7222 13.4102 89.1871 13.2109 89.8433 13.2109C90.5386 13.2109 91.0347 13.4102 91.3316 13.8086C91.6363 14.207 91.7886 14.7773 91.7886 15.5195V22.6914Z" fill="#050729"/>
<path d="M97.1774 19.0703C97.1774 19.5938 97.2164 20.082 97.2946 20.5352C97.3805 20.9883 97.5211 21.3867 97.7164 21.7305C97.9196 22.0664 98.1852 22.332 98.5133 22.5273C98.8492 22.7227 99.2633 22.8203 99.7555 22.8203C100.209 22.8203 100.587 22.7266 100.892 22.5391C101.204 22.3438 101.454 22.0781 101.642 21.7422C101.829 21.3984 101.962 20.9961 102.04 20.5352C102.126 20.0742 102.169 19.5742 102.169 19.0352C102.169 18.6055 102.138 18.168 102.075 17.7227C102.013 17.2695 101.896 16.8594 101.724 16.4922C101.552 16.125 101.314 15.8242 101.009 15.5898C100.704 15.3555 100.306 15.2383 99.8141 15.2383C99.3219 15.2383 98.9039 15.3164 98.5602 15.4727C98.2242 15.6289 97.9508 15.8672 97.7399 16.1875C97.5367 16.5078 97.3922 16.9102 97.3063 17.3945C97.2203 17.8711 97.1774 18.4297 97.1774 19.0703ZM97.1657 15.5195C97.361 15.1055 97.611 14.7422 97.9157 14.4297C98.2203 14.1172 98.5563 13.8555 98.9235 13.6445C99.2907 13.4336 99.6735 13.2773 100.072 13.1758C100.478 13.0664 100.88 13.0117 101.278 13.0117C101.997 13.0117 102.646 13.1719 103.224 13.4922C103.802 13.8125 104.294 14.25 104.7 14.8047C105.114 15.3516 105.431 16 105.65 16.75C105.868 17.4922 105.978 18.2891 105.978 19.1406C105.978 20.0234 105.86 20.832 105.626 21.5664C105.4 22.3008 105.075 22.9336 104.653 23.4648C104.239 23.9883 103.739 24.3984 103.153 24.6953C102.575 24.9922 101.931 25.1406 101.22 25.1406C100.345 25.1406 99.5641 24.9375 98.8766 24.5312C98.1891 24.125 97.6188 23.5547 97.1657 22.8203V27.0391C97.1657 27.7812 97.0133 28.3516 96.7086 28.75C96.4117 29.1484 95.9157 29.3477 95.2203 29.3477C94.5641 29.3477 94.0992 29.1484 93.8258 28.75C93.5602 28.3516 93.4274 27.7812 93.4274 27.0391V15.5195C93.4274 14.7773 93.5602 14.207 93.8258 13.8086C94.0992 13.4102 94.5641 13.2109 95.2203 13.2109C95.9157 13.2109 96.4117 13.4102 96.7086 13.8086C97.0133 14.207 97.1657 14.7773 97.1657 15.5195Z" fill="#050729"/>
<path d="M110.101 16.3516C110.101 16.6562 110.234 16.8945 110.499 17.0664C110.765 17.2305 111.132 17.3672 111.601 17.4766C112.046 17.5781 112.503 17.6758 112.972 17.7695C113.441 17.8633 113.898 17.9727 114.343 18.0977C114.788 18.2148 115.206 18.3555 115.597 18.5195C115.987 18.6836 116.331 18.8906 116.628 19.1406C116.925 19.3828 117.159 19.6797 117.331 20.0312C117.503 20.375 117.589 20.7891 117.589 21.2734C117.589 21.8828 117.464 22.4258 117.214 22.9023C116.964 23.3711 116.609 23.7695 116.148 24.0977C115.695 24.4258 115.152 24.6797 114.519 24.8594C113.886 25.0391 113.187 25.1328 112.421 25.1406C111.695 25.1406 110.995 25.0938 110.323 25C109.652 24.9141 109.054 24.7773 108.53 24.5898C108.015 24.4023 107.601 24.1719 107.288 23.8984C106.976 23.6172 106.82 23.2891 106.82 22.9141C106.82 22.5859 106.925 22.332 107.136 22.1523C107.347 21.9727 107.616 21.8828 107.945 21.8828C108.07 21.8828 108.218 21.9062 108.39 21.9531C108.562 22 108.749 22.0586 108.952 22.1289C109.155 22.1992 109.37 22.2773 109.597 22.3633C109.831 22.4414 110.073 22.5117 110.323 22.5742C110.636 22.6602 110.956 22.7305 111.284 22.7852C111.62 22.832 111.964 22.8555 112.316 22.8555C112.534 22.8555 112.749 22.8359 112.96 22.7969C113.171 22.75 113.359 22.6836 113.523 22.5977C113.695 22.5039 113.835 22.3867 113.945 22.2461C114.054 22.1055 114.12 21.9336 114.144 21.7305C114.167 21.6836 114.187 21.6367 114.202 21.5898C114.218 21.543 114.226 21.4883 114.226 21.4258C114.226 21.207 114.124 21.0117 113.921 20.8398C113.726 20.668 113.448 20.5312 113.089 20.4297C112.487 20.2891 111.913 20.1602 111.366 20.043C110.82 19.9258 110.312 19.8008 109.843 19.668C109.382 19.5352 108.96 19.3828 108.577 19.2109C108.202 19.0391 107.882 18.8281 107.616 18.5781C107.359 18.3281 107.155 18.0273 107.007 17.6758C106.866 17.3242 106.796 16.8984 106.796 16.3984C106.796 15.8594 106.917 15.3789 107.159 14.957C107.409 14.5273 107.765 14.168 108.226 13.8789C108.687 13.5898 109.245 13.3711 109.902 13.2227C110.558 13.0664 111.3 12.9883 112.128 12.9883C113.612 12.9883 114.741 13.168 115.515 13.5273C116.296 13.8789 116.687 14.3398 116.687 14.9102C116.687 15.2305 116.581 15.4766 116.37 15.6484C116.159 15.8125 115.905 15.8945 115.609 15.8945C115.452 15.8945 115.288 15.8672 115.116 15.8125C114.952 15.75 114.753 15.6836 114.519 15.6133C114.284 15.5352 114.003 15.4688 113.675 15.4141C113.355 15.3516 112.956 15.3203 112.48 15.3203C112.12 15.3203 111.792 15.3359 111.495 15.3672C111.206 15.3984 110.956 15.4531 110.745 15.5312C110.542 15.6094 110.382 15.7148 110.265 15.8477C110.155 15.9805 110.101 16.1484 110.101 16.3516Z" fill="#050729"/>
<path d="M122.345 20.6523C122.345 21.0195 122.392 21.3398 122.486 21.6133C122.587 21.8867 122.724 22.1172 122.896 22.3047C123.068 22.4844 123.267 22.6211 123.493 22.7148C123.728 22.8008 123.978 22.8438 124.243 22.8438C124.556 22.8438 124.857 22.7969 125.146 22.7031C125.435 22.6094 125.689 22.4648 125.908 22.2695C126.134 22.0742 126.314 21.8281 126.447 21.5312C126.579 21.2344 126.646 20.8867 126.646 20.4883V15.5195C126.646 14.7773 126.779 14.207 127.044 13.8086C127.318 13.4102 127.783 13.2109 128.439 13.2109C129.134 13.2109 129.63 13.4102 129.927 13.8086C130.232 14.207 130.384 14.7773 130.384 15.5195V22.6914C130.384 23.4336 130.232 24.0039 129.927 24.4023C129.63 24.8008 129.134 25 128.439 25C127.783 25 127.318 24.8008 127.044 24.4023C126.779 24.0039 126.646 23.4336 126.646 22.6914C126.482 23.0508 126.267 23.3789 126.001 23.6758C125.743 23.9727 125.439 24.2305 125.087 24.4492C124.743 24.6602 124.361 24.8242 123.939 24.9414C123.525 25.0586 123.075 25.1172 122.591 25.1172C122.068 25.1172 121.564 25.0273 121.079 24.8477C120.603 24.6602 120.181 24.3867 119.814 24.0273C119.447 23.6602 119.154 23.207 118.935 22.668C118.716 22.1289 118.607 21.5 118.607 20.7812V15.5195C118.607 14.7773 118.74 14.207 119.005 13.8086C119.279 13.4102 119.743 13.2109 120.4 13.2109C121.095 13.2109 121.591 13.4102 121.888 13.8086C122.193 14.207 122.345 14.7773 122.345 15.5195V20.6523Z" fill="#050729"/>
<path d="M132.081 15.5195C132.081 14.7773 132.214 14.207 132.48 13.8086C132.753 13.4102 133.218 13.2109 133.874 13.2109C134.57 13.2109 135.066 13.4102 135.363 13.8086C135.667 14.207 135.82 14.7773 135.82 15.5195C135.976 15.1445 136.187 14.8047 136.453 14.5C136.726 14.1875 137.035 13.9219 137.378 13.7031C137.73 13.4844 138.109 13.3164 138.515 13.1992C138.921 13.0742 139.343 13.0117 139.781 13.0117C140.187 13.0117 140.585 13.0664 140.976 13.1758C141.374 13.2773 141.742 13.4453 142.078 13.6797C142.421 13.9062 142.722 14.1953 142.98 14.5469C143.238 14.8984 143.437 15.3203 143.578 15.8125C143.82 15.2891 144.105 14.8477 144.433 14.4883C144.761 14.1289 145.117 13.8398 145.499 13.6211C145.882 13.4023 146.281 13.2461 146.695 13.1523C147.117 13.0586 147.538 13.0117 147.96 13.0117C148.46 13.0117 148.937 13.1016 149.39 13.2812C149.851 13.4609 150.253 13.7344 150.597 14.1016C150.949 14.4609 151.226 14.918 151.429 15.4727C151.64 16.0195 151.745 16.6602 151.745 17.3945V22.6914C151.745 23.4336 151.593 24.0039 151.288 24.4023C150.992 24.8008 150.495 25 149.8 25C149.144 25 148.679 24.8008 148.406 24.4023C148.14 24.0039 148.007 23.4336 148.007 22.6914V17.5586C148.007 17.207 147.96 16.8945 147.867 16.6211C147.773 16.3398 147.64 16.1055 147.468 15.918C147.304 15.7227 147.109 15.5781 146.882 15.4844C146.656 15.3828 146.413 15.332 146.156 15.332C145.835 15.332 145.531 15.3828 145.242 15.4844C144.953 15.5859 144.699 15.7422 144.48 15.9531C144.269 16.1641 144.097 16.4336 143.964 16.7617C143.839 17.0898 143.777 17.4844 143.777 17.9453V22.6914C143.777 23.4336 143.624 24.0039 143.32 24.4023C143.023 24.8008 142.527 25 141.831 25C141.175 25 140.71 24.8008 140.437 24.4023C140.171 24.0039 140.038 23.4336 140.038 22.6914V17.7812C140.038 16.9766 139.87 16.3672 139.535 15.9531C139.206 15.5391 138.757 15.332 138.187 15.332C137.851 15.332 137.538 15.3867 137.249 15.4961C136.96 15.6055 136.71 15.7656 136.499 15.9766C136.288 16.1875 136.12 16.4492 135.995 16.7617C135.878 17.0742 135.82 17.4336 135.82 17.8398V22.6914C135.82 23.4336 135.667 24.0039 135.363 24.4023C135.066 24.8008 134.57 25 133.874 25C133.218 25 132.753 24.8008 132.48 24.4023C132.214 24.0039 132.081 23.4336 132.081 22.6914V15.5195Z" fill="#050729"/>
<path d="M17.2805 23C13.9668 23 11.2805 20.3137 11.2805 17C11.2805 13.6863 13.9668 11 17.2805 11C20.5942 11 23.2805 13.6863 23.2805 17C23.2805 20.3137 20.5942 23 17.2805 23Z" fill="#050729"/>
<path d="M5.65672 19.0496C3.91797 19.3562 2.72615 21.0358 3.3936 22.6704C4.32544 24.9524 5.81207 26.9856 7.73938 28.5744C10.4953 30.8461 13.9713 32.06 17.5423 31.9977C21.1133 31.9354 24.5449 30.6009 27.2199 28.2343C29.0905 26.5793 30.5053 24.4954 31.357 22.1823C31.967 20.5254 30.7172 18.8884 28.9688 18.6427C27.2205 18.397 25.6507 19.6696 24.7871 21.2096C24.319 22.0443 23.7113 22.8016 22.9833 23.4457C21.4485 24.8036 19.4796 25.5692 17.4308 25.605C15.3819 25.6407 13.3875 24.9443 11.8063 23.6408C11.0562 23.0225 10.4225 22.2869 9.92551 21.469C9.00872 19.9601 7.39547 18.743 5.65672 19.0496Z" fill="#050729"/>
<path d="M32.1645 18.8745C32.2411 18.2604 32.2805 17.6348 32.2805 17C32.2805 8.71573 25.5648 2 17.2805 2C8.99622 2 2.28049 8.71573 2.28049 17C2.28049 17.8147 2.34544 18.6142 2.47045 19.3937C3.15943 18.4505 4.23475 17.7772 5.39625 17.5724C6.65294 17.3508 7.79507 17.6556 8.76076 18.2253C8.70371 17.8251 8.67419 17.416 8.67419 17C8.67419 12.2469 12.5274 8.3937 17.2805 8.3937C22.0336 8.3937 25.8868 12.2469 25.8868 17C25.8868 17.3134 25.87 17.6229 25.8374 17.9276C26.7827 17.3243 27.9137 16.9796 29.1776 17.1573C30.3452 17.3214 31.443 17.9564 32.1645 18.8745Z" fill="#050729"/>
</svg>
